<mxfile host="app.diagrams.net" modified="2023-06-15T20:12:11.528Z" agent="Mozilla/5.0 (Windows NT 10.0; Win64; x64) AppleWebKit/537.36 (KHTML, like Gecko) Chrome/114.0.0.0 Safari/537.36" etag="1OzKfJ6AamPwY5HPboFR" version="21.4.0" type="device" pages="2">
  <diagram name="第 1 页" id="7sI7sFzSxOHr9u_fJR_V">
    <mxGraphModel dx="1877" dy="590" grid="1" gridSize="10" guides="1" tooltips="1" connect="1" arrows="1" fold="1" page="1" pageScale="1" pageWidth="827" pageHeight="1169" math="0" shadow="0">
      <root>
        <mxCell id="0" />
        <mxCell id="1" parent="0" />
        <mxCell id="HZR7lBufp_PEd-h01E_1-1" value="client" style="shape=umlActor;verticalLabelPosition=bottom;verticalAlign=top;html=1;" parent="1" vertex="1">
          <mxGeometry x="-100" y="240" width="30" height="60" as="geometry" />
        </mxCell>
        <mxCell id="HZR7lBufp_PEd-h01E_1-2" value="delivery&amp;nbsp; order" style="ellipse;whiteSpace=wrap;html=1;" parent="1" vertex="1">
          <mxGeometry x="50" y="150" width="140" height="70" as="geometry" />
        </mxCell>
        <mxCell id="HZR7lBufp_PEd-h01E_1-5" value="warehouse&amp;nbsp;" style="shape=umlActor;verticalLabelPosition=bottom;verticalAlign=top;html=1;" parent="1" vertex="1">
          <mxGeometry x="360" y="410" width="30" height="60" as="geometry" />
        </mxCell>
        <mxCell id="HZR7lBufp_PEd-h01E_1-6" value="publisher" style="shape=umlActor;verticalLabelPosition=bottom;verticalAlign=top;html=1;" parent="1" vertex="1">
          <mxGeometry x="710" y="555" width="30" height="60" as="geometry" />
        </mxCell>
        <mxCell id="HZR7lBufp_PEd-h01E_1-7" value="author" style="shape=umlActor;verticalLabelPosition=bottom;verticalAlign=top;html=1;" parent="1" vertex="1">
          <mxGeometry x="710" y="450" width="30" height="60" as="geometry" />
        </mxCell>
        <mxCell id="HZR7lBufp_PEd-h01E_1-9" value="filling out the order form" style="ellipse;whiteSpace=wrap;html=1;" parent="1" vertex="1">
          <mxGeometry x="70" y="270" width="140" height="70" as="geometry" />
        </mxCell>
        <mxCell id="HZR7lBufp_PEd-h01E_1-10" value="&amp;nbsp;order payment" style="ellipse;whiteSpace=wrap;html=1;" parent="1" vertex="1">
          <mxGeometry x="320" y="50" width="140" height="70" as="geometry" />
        </mxCell>
        <mxCell id="HZR7lBufp_PEd-h01E_1-11" value="&amp;nbsp;order registration" style="ellipse;whiteSpace=wrap;html=1;" parent="1" vertex="1">
          <mxGeometry x="300" y="160" width="140" height="70" as="geometry" />
        </mxCell>
        <mxCell id="HZR7lBufp_PEd-h01E_1-12" value="Books in stock" style="ellipse;whiteSpace=wrap;html=1;" parent="1" vertex="1">
          <mxGeometry x="350" y="510" width="140" height="70" as="geometry" />
        </mxCell>
        <mxCell id="HZR7lBufp_PEd-h01E_1-13" value="Publish a book" style="ellipse;whiteSpace=wrap;html=1;" parent="1" vertex="1">
          <mxGeometry x="520" y="500" width="140" height="70" as="geometry" />
        </mxCell>
        <mxCell id="HZR7lBufp_PEd-h01E_1-21" value="" style="endArrow=none;html=1;rounded=0;exitX=0.984;exitY=0.297;exitDx=0;exitDy=0;exitPerimeter=0;" parent="1" source="HZR7lBufp_PEd-h01E_1-13" target="HZR7lBufp_PEd-h01E_1-7" edge="1">
          <mxGeometry width="50" height="50" relative="1" as="geometry">
            <mxPoint x="490" y="370" as="sourcePoint" />
            <mxPoint x="700" y="520" as="targetPoint" />
          </mxGeometry>
        </mxCell>
        <mxCell id="HZR7lBufp_PEd-h01E_1-22" value="" style="endArrow=none;html=1;rounded=0;" parent="1" source="HZR7lBufp_PEd-h01E_1-6" target="HZR7lBufp_PEd-h01E_1-13" edge="1">
          <mxGeometry width="50" height="50" relative="1" as="geometry">
            <mxPoint x="700" y="610" as="sourcePoint" />
            <mxPoint x="623" y="592" as="targetPoint" />
          </mxGeometry>
        </mxCell>
        <mxCell id="HZR7lBufp_PEd-h01E_1-24" value="" style="endArrow=none;html=1;rounded=0;exitX=0.99;exitY=0.314;exitDx=0;exitDy=0;exitPerimeter=0;entryX=0;entryY=0.5;entryDx=0;entryDy=0;" parent="1" source="HZR7lBufp_PEd-h01E_1-12" target="HZR7lBufp_PEd-h01E_1-13" edge="1">
          <mxGeometry width="50" height="50" relative="1" as="geometry">
            <mxPoint x="490" y="370" as="sourcePoint" />
            <mxPoint x="540" y="320" as="targetPoint" />
          </mxGeometry>
        </mxCell>
        <mxCell id="HZR7lBufp_PEd-h01E_1-25" value="Check stock" style="ellipse;whiteSpace=wrap;html=1;" parent="1" vertex="1">
          <mxGeometry x="490" y="400" width="140" height="70" as="geometry" />
        </mxCell>
        <mxCell id="HZR7lBufp_PEd-h01E_1-28" value="" style="endArrow=none;html=1;rounded=0;" parent="1" edge="1">
          <mxGeometry width="50" height="50" relative="1" as="geometry">
            <mxPoint x="390" y="440" as="sourcePoint" />
            <mxPoint x="430" y="510" as="targetPoint" />
          </mxGeometry>
        </mxCell>
        <mxCell id="HZR7lBufp_PEd-h01E_1-29" value="" style="endArrow=none;html=1;rounded=0;" parent="1" source="HZR7lBufp_PEd-h01E_1-5" edge="1">
          <mxGeometry width="50" height="50" relative="1" as="geometry">
            <mxPoint x="610" y="480" as="sourcePoint" />
            <mxPoint x="490" y="440" as="targetPoint" />
          </mxGeometry>
        </mxCell>
        <mxCell id="HZR7lBufp_PEd-h01E_1-30" value="" style="endArrow=none;html=1;rounded=0;entryX=0;entryY=1;entryDx=0;entryDy=0;" parent="1" source="HZR7lBufp_PEd-h01E_1-1" target="HZR7lBufp_PEd-h01E_1-2" edge="1">
          <mxGeometry width="50" height="50" relative="1" as="geometry">
            <mxPoint x="390" y="280" as="sourcePoint" />
            <mxPoint x="-12" y="268" as="targetPoint" />
          </mxGeometry>
        </mxCell>
        <mxCell id="HZR7lBufp_PEd-h01E_1-31" value="" style="endArrow=classic;html=1;rounded=0;" parent="1" target="HZR7lBufp_PEd-h01E_1-9" edge="1">
          <mxGeometry relative="1" as="geometry">
            <mxPoint x="151" y="219" as="sourcePoint" />
            <mxPoint x="460" y="260" as="targetPoint" />
          </mxGeometry>
        </mxCell>
        <mxCell id="HZR7lBufp_PEd-h01E_1-32" value="include" style="edgeLabel;resizable=0;html=1;align=center;verticalAlign=middle;" parent="HZR7lBufp_PEd-h01E_1-31" connectable="0" vertex="1">
          <mxGeometry relative="1" as="geometry" />
        </mxCell>
        <mxCell id="HZR7lBufp_PEd-h01E_1-35" value="" style="endArrow=classic;html=1;rounded=0;exitX=1.013;exitY=0.6;exitDx=0;exitDy=0;exitPerimeter=0;entryX=0;entryY=0.5;entryDx=0;entryDy=0;" parent="1" source="HZR7lBufp_PEd-h01E_1-2" target="HZR7lBufp_PEd-h01E_1-11" edge="1">
          <mxGeometry relative="1" as="geometry">
            <mxPoint x="161" y="229" as="sourcePoint" />
            <mxPoint x="154" y="280" as="targetPoint" />
          </mxGeometry>
        </mxCell>
        <mxCell id="HZR7lBufp_PEd-h01E_1-36" value="include" style="edgeLabel;resizable=0;html=1;align=center;verticalAlign=middle;" parent="HZR7lBufp_PEd-h01E_1-35" connectable="0" vertex="1">
          <mxGeometry relative="1" as="geometry" />
        </mxCell>
        <mxCell id="HZR7lBufp_PEd-h01E_1-37" value="" style="endArrow=classic;html=1;rounded=0;exitX=0.5;exitY=0;exitDx=0;exitDy=0;" parent="1" source="HZR7lBufp_PEd-h01E_1-11" target="HZR7lBufp_PEd-h01E_1-10" edge="1">
          <mxGeometry relative="1" as="geometry">
            <mxPoint x="202" y="202" as="sourcePoint" />
            <mxPoint x="310" y="205" as="targetPoint" />
          </mxGeometry>
        </mxCell>
        <mxCell id="HZR7lBufp_PEd-h01E_1-38" value="include" style="edgeLabel;resizable=0;html=1;align=center;verticalAlign=middle;" parent="HZR7lBufp_PEd-h01E_1-37" connectable="0" vertex="1">
          <mxGeometry relative="1" as="geometry" />
        </mxCell>
        <mxCell id="HZR7lBufp_PEd-h01E_1-39" value="check the payment method" style="ellipse;whiteSpace=wrap;html=1;" parent="1" vertex="1">
          <mxGeometry x="520" y="50" width="140" height="70" as="geometry" />
        </mxCell>
        <mxCell id="HZR7lBufp_PEd-h01E_1-40" value="" style="endArrow=classic;html=1;rounded=0;exitX=1;exitY=0.5;exitDx=0;exitDy=0;" parent="1" source="HZR7lBufp_PEd-h01E_1-10" target="HZR7lBufp_PEd-h01E_1-39" edge="1">
          <mxGeometry relative="1" as="geometry">
            <mxPoint x="212" y="212" as="sourcePoint" />
            <mxPoint x="320" y="215" as="targetPoint" />
          </mxGeometry>
        </mxCell>
        <mxCell id="HZR7lBufp_PEd-h01E_1-41" value="include" style="edgeLabel;resizable=0;html=1;align=center;verticalAlign=middle;" parent="HZR7lBufp_PEd-h01E_1-40" connectable="0" vertex="1">
          <mxGeometry relative="1" as="geometry" />
        </mxCell>
        <mxCell id="HZR7lBufp_PEd-h01E_1-42" value="Administrators" style="shape=umlActor;verticalLabelPosition=bottom;verticalAlign=top;html=1;" parent="1" vertex="1">
          <mxGeometry x="560" y="165" width="30" height="65" as="geometry" />
        </mxCell>
        <mxCell id="HZR7lBufp_PEd-h01E_1-43" value="" style="endArrow=none;html=1;rounded=0;" parent="1" source="HZR7lBufp_PEd-h01E_1-42" edge="1">
          <mxGeometry width="50" height="50" relative="1" as="geometry">
            <mxPoint x="390" y="280" as="sourcePoint" />
            <mxPoint x="450" y="200" as="targetPoint" />
          </mxGeometry>
        </mxCell>
        <mxCell id="HZR7lBufp_PEd-h01E_1-45" value="Post order requests" style="ellipse;whiteSpace=wrap;html=1;" parent="1" vertex="1">
          <mxGeometry x="500" y="270" width="140" height="70" as="geometry" />
        </mxCell>
        <mxCell id="HZR7lBufp_PEd-h01E_1-48" value="" style="endArrow=classic;html=1;rounded=0;exitX=0.436;exitY=1.04;exitDx=0;exitDy=0;exitPerimeter=0;" parent="1" source="HZR7lBufp_PEd-h01E_1-45" target="HZR7lBufp_PEd-h01E_1-25" edge="1">
          <mxGeometry relative="1" as="geometry">
            <mxPoint x="302" y="242" as="sourcePoint" />
            <mxPoint x="410" y="245" as="targetPoint" />
          </mxGeometry>
        </mxCell>
        <mxCell id="HZR7lBufp_PEd-h01E_1-49" value="include" style="edgeLabel;resizable=0;html=1;align=center;verticalAlign=middle;" parent="HZR7lBufp_PEd-h01E_1-48" connectable="0" vertex="1">
          <mxGeometry relative="1" as="geometry" />
        </mxCell>
        <mxCell id="HZR7lBufp_PEd-h01E_1-51" value="" style="endArrow=none;html=1;rounded=0;exitX=0.576;exitY=0.034;exitDx=0;exitDy=0;exitPerimeter=0;" parent="1" source="HZR7lBufp_PEd-h01E_1-45" edge="1">
          <mxGeometry width="50" height="50" relative="1" as="geometry">
            <mxPoint x="390" y="280" as="sourcePoint" />
            <mxPoint x="580" y="250" as="targetPoint" />
          </mxGeometry>
        </mxCell>
        <mxCell id="HZR7lBufp_PEd-h01E_1-55" value="Pack your order and give it to the courier" style="ellipse;whiteSpace=wrap;html=1;" parent="1" vertex="1">
          <mxGeometry x="160" y="410" width="140" height="70" as="geometry" />
        </mxCell>
        <mxCell id="HZR7lBufp_PEd-h01E_1-56" value="" style="endArrow=none;html=1;rounded=0;exitX=1;exitY=0.5;exitDx=0;exitDy=0;" parent="1" source="HZR7lBufp_PEd-h01E_1-55" edge="1">
          <mxGeometry width="50" height="50" relative="1" as="geometry">
            <mxPoint x="310" y="480" as="sourcePoint" />
            <mxPoint x="360" y="440" as="targetPoint" />
          </mxGeometry>
        </mxCell>
        <mxCell id="HZR7lBufp_PEd-h01E_1-57" value="book delivery" style="ellipse;whiteSpace=wrap;html=1;" parent="1" vertex="1">
          <mxGeometry x="-40" y="430" width="140" height="70" as="geometry" />
        </mxCell>
        <mxCell id="HZR7lBufp_PEd-h01E_1-58" value="tranfer the order" style="ellipse;whiteSpace=wrap;html=1;" parent="1" vertex="1">
          <mxGeometry x="-230" y="510" width="140" height="70" as="geometry" />
        </mxCell>
        <mxCell id="HZR7lBufp_PEd-h01E_1-59" value="handover the order to the client" style="ellipse;whiteSpace=wrap;html=1;" parent="1" vertex="1">
          <mxGeometry x="-190" y="360" width="140" height="70" as="geometry" />
        </mxCell>
        <mxCell id="HZR7lBufp_PEd-h01E_1-61" value="" style="endArrow=none;html=1;rounded=0;exitX=0.653;exitY=0.046;exitDx=0;exitDy=0;exitPerimeter=0;" parent="1" source="HZR7lBufp_PEd-h01E_1-59" target="HZR7lBufp_PEd-h01E_1-1" edge="1">
          <mxGeometry width="50" height="50" relative="1" as="geometry">
            <mxPoint x="290" y="410" as="sourcePoint" />
            <mxPoint x="340" y="360" as="targetPoint" />
          </mxGeometry>
        </mxCell>
        <mxCell id="HZR7lBufp_PEd-h01E_1-62" value="courier" style="shape=umlActor;verticalLabelPosition=bottom;verticalAlign=top;html=1;outlineConnect=0;" parent="1" vertex="1">
          <mxGeometry x="30" y="555" width="30" height="60" as="geometry" />
        </mxCell>
        <mxCell id="HZR7lBufp_PEd-h01E_1-65" value="" style="endArrow=classic;html=1;rounded=0;entryX=0.021;entryY=0.309;entryDx=0;entryDy=0;entryPerimeter=0;" parent="1" source="HZR7lBufp_PEd-h01E_1-57" target="HZR7lBufp_PEd-h01E_1-55" edge="1">
          <mxGeometry relative="1" as="geometry">
            <mxPoint x="161" y="229" as="sourcePoint" />
            <mxPoint x="154" y="280" as="targetPoint" />
          </mxGeometry>
        </mxCell>
        <mxCell id="HZR7lBufp_PEd-h01E_1-66" value="include" style="edgeLabel;resizable=0;html=1;align=center;verticalAlign=middle;" parent="HZR7lBufp_PEd-h01E_1-65" connectable="0" vertex="1">
          <mxGeometry relative="1" as="geometry" />
        </mxCell>
        <mxCell id="HZR7lBufp_PEd-h01E_1-67" value="" style="endArrow=classic;html=1;rounded=0;exitX=0.29;exitY=0.063;exitDx=0;exitDy=0;exitPerimeter=0;" parent="1" source="HZR7lBufp_PEd-h01E_1-57" target="HZR7lBufp_PEd-h01E_1-59" edge="1">
          <mxGeometry relative="1" as="geometry">
            <mxPoint x="171" y="239" as="sourcePoint" />
            <mxPoint x="164" y="290" as="targetPoint" />
          </mxGeometry>
        </mxCell>
        <mxCell id="HZR7lBufp_PEd-h01E_1-68" value="include" style="edgeLabel;resizable=0;html=1;align=center;verticalAlign=middle;" parent="HZR7lBufp_PEd-h01E_1-67" connectable="0" vertex="1">
          <mxGeometry relative="1" as="geometry" />
        </mxCell>
        <mxCell id="HZR7lBufp_PEd-h01E_1-69" value="" style="endArrow=classic;html=1;rounded=0;exitX=0;exitY=0.5;exitDx=0;exitDy=0;entryX=0.676;entryY=0.063;entryDx=0;entryDy=0;entryPerimeter=0;" parent="1" source="HZR7lBufp_PEd-h01E_1-57" target="HZR7lBufp_PEd-h01E_1-58" edge="1">
          <mxGeometry relative="1" as="geometry">
            <mxPoint x="181" y="249" as="sourcePoint" />
            <mxPoint x="174" y="300" as="targetPoint" />
          </mxGeometry>
        </mxCell>
        <mxCell id="HZR7lBufp_PEd-h01E_1-70" value="include" style="edgeLabel;resizable=0;html=1;align=center;verticalAlign=middle;" parent="HZR7lBufp_PEd-h01E_1-69" connectable="0" vertex="1">
          <mxGeometry relative="1" as="geometry" />
        </mxCell>
        <mxCell id="HZR7lBufp_PEd-h01E_1-71" value="" style="endArrow=none;html=1;rounded=0;exitX=0.61;exitY=0.977;exitDx=0;exitDy=0;exitPerimeter=0;" parent="1" source="HZR7lBufp_PEd-h01E_1-57" edge="1">
          <mxGeometry width="50" height="50" relative="1" as="geometry">
            <mxPoint x="290" y="480" as="sourcePoint" />
            <mxPoint x="45" y="550" as="targetPoint" />
          </mxGeometry>
        </mxCell>
        <mxCell id="HZR7lBufp_PEd-h01E_1-72" value="cancel order" style="ellipse;whiteSpace=wrap;html=1;" parent="1" vertex="1">
          <mxGeometry x="290" y="270" width="140" height="70" as="geometry" />
        </mxCell>
        <mxCell id="HZR7lBufp_PEd-h01E_1-73" value="" style="endArrow=classic;html=1;rounded=0;exitX=0.416;exitY=1.006;exitDx=0;exitDy=0;exitPerimeter=0;" parent="1" source="HZR7lBufp_PEd-h01E_1-11" target="HZR7lBufp_PEd-h01E_1-72" edge="1">
          <mxGeometry relative="1" as="geometry">
            <mxPoint x="191" y="259" as="sourcePoint" />
            <mxPoint x="184" y="310" as="targetPoint" />
          </mxGeometry>
        </mxCell>
        <mxCell id="HZR7lBufp_PEd-h01E_1-74" value="include" style="edgeLabel;resizable=0;html=1;align=center;verticalAlign=middle;" parent="HZR7lBufp_PEd-h01E_1-73" connectable="0" vertex="1">
          <mxGeometry relative="1" as="geometry" />
        </mxCell>
        <mxCell id="HZR7lBufp_PEd-h01E_1-75" value="back call" style="ellipse;whiteSpace=wrap;html=1;" parent="1" vertex="1">
          <mxGeometry x="110" y="50" width="140" height="70" as="geometry" />
        </mxCell>
        <mxCell id="HZR7lBufp_PEd-h01E_1-76" value="" style="endArrow=classic;html=1;rounded=0;exitX=0;exitY=0;exitDx=0;exitDy=0;" parent="1" source="HZR7lBufp_PEd-h01E_1-11" target="HZR7lBufp_PEd-h01E_1-75" edge="1">
          <mxGeometry relative="1" as="geometry">
            <mxPoint x="201" y="269" as="sourcePoint" />
            <mxPoint x="194" y="320" as="targetPoint" />
          </mxGeometry>
        </mxCell>
        <mxCell id="HZR7lBufp_PEd-h01E_1-77" value="include" style="edgeLabel;resizable=0;html=1;align=center;verticalAlign=middle;" parent="HZR7lBufp_PEd-h01E_1-76" connectable="0" vertex="1">
          <mxGeometry relative="1" as="geometry" />
        </mxCell>
        <mxCell id="HZR7lBufp_PEd-h01E_1-78" value="" style="endArrow=none;html=1;rounded=0;exitX=0.041;exitY=0.714;exitDx=0;exitDy=0;exitPerimeter=0;" parent="1" source="HZR7lBufp_PEd-h01E_1-75" target="HZR7lBufp_PEd-h01E_1-1" edge="1">
          <mxGeometry width="50" height="50" relative="1" as="geometry">
            <mxPoint x="330" y="260" as="sourcePoint" />
            <mxPoint x="380" y="210" as="targetPoint" />
          </mxGeometry>
        </mxCell>
      </root>
    </mxGraphModel>
  </diagram>
  <diagram id="4tap83ElpEmLxwyCi0qz" name="第 2 页">
    <mxGraphModel dx="1050" dy="590" grid="1" gridSize="10" guides="1" tooltips="1" connect="1" arrows="1" fold="1" page="1" pageScale="1" pageWidth="827" pageHeight="1169" math="0" shadow="0">
      <root>
        <mxCell id="0" />
        <mxCell id="1" parent="0" />
      </root>
    </mxGraphModel>
  </diagram>
</mxfile>
